HIERARCHY
ROOT hip
{
	OFFSET 0.000000 0.000000 0.000000 
	CHANNELS 6 Xposition Yposition Zposition Xrotation Zrotation Yrotation
	JOINT abdomen
	{
		OFFSET 0.000000 3.402643 0.000000 
		CHANNELS 3 Xrotation Zrotation Yrotation
		JOINT chest
		{
			OFFSET 0.000000 8.438565 -0.680529 
			CHANNELS 3 Xrotation Zrotation Yrotation
			JOINT neck
			{
				OFFSET 0.000000 10.207942 -0.272212 
				CHANNELS 3 Xrotation Zrotation Yrotation
				JOINT head
				{
					OFFSET 0.000000 3.130431 0.000000 
					CHANNELS 3 Xrotation Zrotation Yrotation
					End Site
					{
						OFFSET 0.000000 3.130435 0.000000 
					}
				}
			}
			JOINT lCollar
			{
				OFFSET 3.470700 6.669187 -0.816635 
				CHANNELS 3 Yrotation Zrotation Xrotation
				JOINT lShldr
				{
					OFFSET 3.198488 0.000000 0.000000 
					CHANNELS 3 Zrotation Yrotation Xrotation
					JOINT lForeArm
					{
						OFFSET 10.139888 0.000000 0.000000 
						CHANNELS 3 Yrotation Zrotation Xrotation
						JOINT lHand
						{
							OFFSET 8.370511 0.000000 0.000000 
							CHANNELS 3 Zrotation Yrotation Xrotation
							End Site
							{
								OFFSET 4.083176 0.000000 0.000000 
							}
						}
					}
				}
			}
			JOINT rCollar
			{
				OFFSET -3.470700 6.669187 -0.816635 
				CHANNELS 3 Yrotation Zrotation Xrotation
				JOINT rShldr
				{
					OFFSET -3.198488 0.000000 0.000000 
					CHANNELS 3 Zrotation Yrotation Xrotation
					JOINT rForeArm
					{
						OFFSET -10.139888 0.000000 0.000000 
						CHANNELS 3 Yrotation Zrotation Xrotation
						JOINT rHand
						{
							OFFSET -8.370511 0.000000 0.000000 
							CHANNELS 3 Zrotation Yrotation Xrotation
							End Site
							{
								OFFSET -4.083176 0.000000 0.000000 
							}
						}
					}
				}
			}
		}
	}
	JOINT lThigh
	{
		OFFSET 5.308129 -1.633274 1.361059 
		CHANNELS 3 Xrotation Zrotation Yrotation
		JOINT lShin
		{
			OFFSET -2.041588 -20.007561 0.000000 
			CHANNELS 3 Xrotation Zrotation Yrotation
			JOINT lFoot
			{
				OFFSET 0.000000 -19.190928 -1.224953 
				CHANNELS 3 Xrotation Yrotation Zrotation
				End Site
				{
					OFFSET 0.000000 -2.449906 4.627600 
				}
			}
		}
	}
	JOINT rThigh
	{
		OFFSET -5.308129 -1.633274 1.361059 
		CHANNELS 3 Xrotation Zrotation Yrotation
		JOINT rShin
		{
			OFFSET 2.041588 -20.007561 0.000000 
			CHANNELS 3 Xrotation Zrotation Yrotation
			JOINT rFoot
			{
				OFFSET 0.000000 -19.190928 -1.224953 
				CHANNELS 3 Xrotation Yrotation Zrotation
				End Site
				{
					OFFSET 0.000000 -2.449906 4.627600 
				}
			}
		}
	}
}
MOTION
Frames: 11
Frame Time: 0.033333
-34.763973 40.235733 9.435336 13.252060 0.228134 65.961975 0.000000 0.000000 0.000000 54.548878 15.417606 3.151145 32.583046 6.503608 -11.298099 -2.382427 -4.132120 -10.908257 -0.140780 -3.618502 25.000000 -49.017647 2.246522 -10.244652 -80.748650 -1.044386 3.687232 2.400263 0.043195 -3.518139 -0.224686 8.815483 25.000000 -42.563068 -2.080239 -82.213356 -0.081610 -16.220549 15.539254 -63.413109 -3.772974 -3.281754 -31.278080 8.700714 -4.631679 52.184391 5.678745 -7.661093 -29.445396 3.573898 -13.605894 -53.383900 -30.847019 0.413263 59.668224 -1.387464 -4.765400 -11.244081 -1.145361 11.438498 
-35.037670 40.266563 10.883819 15.442084 1.044861 66.851242 0.000000 0.000000 0.000000 54.850498 16.696413 6.387621 32.465881 8.211043 -11.692606 -6.301474 -3.709126 -12.929707 1.074969 1.075437 25.000000 -53.265282 2.092495 -6.466381 -79.098358 -1.404195 7.757106 -0.685560 -0.622470 -3.408952 8.043838 6.274456 25.000000 -30.406319 9.046981 -65.203300 -0.412103 -15.232814 0.372786 -34.742321 -4.209927 -3.261029 -28.541258 9.051594 -3.877616 47.640045 5.140909 -10.775070 -28.927546 3.563278 -13.790134 -54.510242 -30.634146 1.499677 62.083839 -2.461350 -6.118048 -13.471417 -1.328945 11.004749 
-35.180931 40.292618 12.311822 17.331718 1.659402 68.388931 0.000000 0.000000 0.000000 53.881912 17.832310 8.344010 32.032635 9.936204 -13.269091 -10.256351 -0.905659 -15.237561 1.865366 2.945184 25.000000 -56.451092 5.080815 -5.208012 -78.709053 -1.513773 8.851723 -1.997368 -2.283168 -3.314100 17.056488 3.172283 25.000000 -25.372494 11.780087 -37.482994 0.299827 3.933628 -12.530541 12.849810 2.854647 -2.702282 -24.796318 8.962120 -4.057595 41.641182 5.726645 -12.421591 -28.074451 3.816673 -15.248288 -54.868050 -30.720247 1.931598 64.291893 -3.330631 -8.787723 -15.590336 -1.527086 11.008377 
-35.141392 40.297401 13.746759 17.938034 1.718874 70.019272 0.000000 0.000000 0.000000 52.192013 19.058903 8.665436 31.156332 11.211617 -14.708150 -12.422198 0.309925 -15.695302 2.334810 3.486948 25.000000 -58.236324 10.111600 -6.492469 -77.398781 -1.450787 7.771734 -2.054493 -3.166772 -3.280420 16.806868 3.081667 25.000000 -34.022243 27.993010 -33.363636 0.080584 13.735744 16.692339 5.988940 2.297034 -3.122883 -20.769424 10.409081 -4.031610 36.099388 6.925465 -14.826491 -27.582491 3.808857 -15.519746 -53.560974 -29.822481 1.825710 66.448441 -4.023371 -9.556577 -18.779034 -1.896227 11.309134 
-34.946198 40.356922 15.064231 17.812920 1.906053 71.149727 0.000000 0.000000 0.000000 50.451611 20.301193 9.062620 29.896626 11.303479 -15.843363 -8.885475 1.760440 -17.575811 3.697084 3.603094 25.000000 -58.114574 14.224070 -6.105876 -75.693878 -1.626001 9.927510 -1.586381 -3.130161 -3.309878 16.465477 3.939980 25.000000 -34.159592 43.238029 -50.863792 0.070424 10.903200 35.391972 1.453360 3.905047 -3.308025 -16.545769 12.358751 -3.204572 31.975620 7.923672 -14.900036 -24.908417 3.763859 -16.972876 -51.490437 -28.660276 1.106877 67.659546 -4.258708 -11.237933 -21.064718 -2.190729 11.654710 
-34.825775 40.707645 16.010368 17.844101 2.073066 71.868614 0.000000 0.000000 0.000000 49.073330 21.595709 10.416279 28.472437 11.940608 -14.847844 -6.465366 0.471492 -17.392565 3.110311 6.121516 25.000000 -60.005711 14.312521 -4.435042 -73.283485 -1.897387 12.820959 -4.001802 -2.669375 -3.195368 16.040682 6.310605 25.000000 -36.032307 54.311749 -64.659943 0.069934 8.150939 31.425344 7.208593 8.647906 -2.570245 -14.178946 13.309950 -2.365745 31.568062 8.228121 -13.582300 -21.358513 3.077638 -16.366022 -49.489803 -28.563272 0.035947 66.980782 -3.984612 -11.025260 -22.019590 -2.178965 11.018248 
-34.662609 41.168484 16.632612 19.771116 1.323384 72.350739 0.000000 0.000000 0.000000 46.546654 21.572016 10.802124 26.924776 12.424730 -13.352916 -4.874680 -0.883194 -16.507107 2.787069 7.655589 25.000000 -62.154591 13.611385 -3.923121 -71.409920 -1.805043 14.214715 -5.381378 -3.780662 -3.055140 16.098700 7.241889 25.000000 -39.094925 62.336842 -71.633690 0.142922 8.678408 30.809996 10.381540 9.898089 -2.100142 -14.361309 11.950200 -2.461641 33.072052 7.788780 -12.652452 -17.989119 2.304761 -14.598291 -49.742874 -29.998262 0.095124 66.008408 -3.809430 -8.802621 -22.881851 -2.038848 9.947136 
-34.539005 41.670975 17.271328 20.408068 1.537699 71.841606 0.000000 0.000000 0.000000 45.668133 20.635962 10.727381 26.873962 12.171645 -10.737473 -5.150581 -1.384913 -14.680677 3.431109 6.876168 25.000000 -62.475296 14.014668 -4.799535 -72.449608 -1.513220 12.429631 -2.879833 -4.514363 -3.179928 16.548353 7.164931 25.000000 -37.017616 65.964180 -64.233070 11.910315 12.237003 38.075111 11.941854 13.274034 -1.511397 -12.912978 11.654434 -1.771911 33.911037 7.143829 -14.009701 -14.117575 1.758488 -14.309165 -48.289906 -29.735693 0.007633 64.531555 -3.642489 -7.634907 -23.388247 -1.894470 9.039690 
-34.509560 42.192974 17.854223 19.796192 1.874542 71.749084 0.000000 0.000000 0.000000 45.167782 19.707710 10.146024 27.108055 12.061933 -8.112826 -4.973393 -1.129644 -12.549533 3.231205 7.579099 25.000000 -64.824776 13.736074 -6.147218 -73.687706 -1.149945 9.150842 -2.368320 -4.710515 -3.212427 16.486433 6.989697 25.000000 -37.524754 68.087311 -58.418957 26.066690 14.540230 36.614609 13.340445 12.612087 -1.392400 -11.815066 12.225342 -1.035489 35.164932 6.872359 -14.752270 -9.504912 1.172724 -14.422932 -45.513504 -28.688911 -0.867414 62.521019 -3.233206 -7.210778 -23.406000 -1.745629 8.307568 
-34.497616 42.660732 18.311626 18.740295 1.821906 72.659309 0.000000 0.000000 0.000000 44.051926 19.515779 9.062918 26.279619 11.965940 -7.028511 -2.158520 -2.465677 -10.342056 2.501628 7.186224 25.000000 -65.917542 13.887598 -6.936716 -75.140167 -0.860134 8.206854 -3.678045 -4.803262 -3.109137 15.855024 6.525230 25.000000 -35.719807 70.103241 -52.092529 39.046139 13.746059 35.701374 12.524838 13.319484 -1.419430 -12.283770 12.488991 -1.319617 37.739269 7.348567 -14.994645 -5.545971 0.642629 -13.576858 -42.458374 -27.488659 -1.546374 60.407127 -3.193527 -6.646439 -23.269859 -1.725557 8.284433 
-34.422852 43.071735 18.810179 17.298092 2.181902 74.107300 0.000000 0.000000 0.000000 42.879398 19.287550 7.814084 25.342098 11.782166 -6.260581 1.327253 -3.090196 -8.619355 1.864683 6.241000 25.000000 -65.643982 13.362985 -6.844728 -76.348747 -0.774785 7.586839 -5.344979 -5.558601 -2.942080 15.866866 7.927059 25.000000 -29.871162 69.211685 -40.285816 52.003212 10.903737 33.288490 11.363248 13.345673 -1.592647 -12.688268 12.923157 -1.593568 40.195877 7.956488 -14.046596 -0.631498 0.063959 -14.117000 -38.679314 -26.375385 -2.386969 58.421661 -3.076474 -5.767455 -23.318569 -1.723969 8.286138 
